<?xml version="1.0" encoding="UTF-8" standalone="no"?>
<svg width="481px" height="199px" viewBox="0 0 481 199" version="1.1" xmlns="http://www.w3.org/2000/svg" xmlns:xlink="http://www.w3.org/1999/xlink">
    <!-- Generator: Sketch 39.1 (31720) - http://www.bohemiancoding.com/sketch -->
    <title>Slice 1</title>
    <desc>Created with Sketch.</desc>
    <defs></defs>
    <g id="Page-1" stroke="none" stroke-width="1" fill="none" fill-rule="evenodd">
        <g id="Group">
            <g id="the-score-logo">
                <g id="C9C34A7C-F694-4C00-B80C-F612B960894A">
                    <g id="Nav-Bar">
                        <g id="Nav_Contact_Desktop-(≥-768---1440px)">
                            <g id="Nav_Contact">
                                <g id="theScore-logo">
                                    <path d="M43.4941872,19.5332563 L40.2693453,31.0150042 L32.1553937,31.0150042 L26.8507729,50.2921049 C25.1872461,56.2109791 24.8746868,57.6514328 32.6768197,58.450189 L29.5564109,69.8676176 L17.1873566,70.5683992 C0.796507848,71.5272058 -2.21132028,67.2499705 1.31571187,54.5311975 L7.74687947,31.0150042 L4.73905135,31.0150042 L7.9550055,19.5332563 L10.9635743,19.5332563 L13.6610651,9.71408824 L39.5420152,4.36511344 L35.381717,19.5332563 L43.4941872,19.5332563 L43.4941872,19.5332563 Z" id="Fill-1" fill="#FFFFFF"></path>
                                    <path d="M92.0610941,18.3968235 C101.20975,18.2390168 108.177898,21.5065882 105.057489,32.9898319 L99.8565611,51.8683025 C98.5041122,56.7468488 98.5041122,57.3870504 100.897191,58.5074033 L97.7767824,69.7445881 L71.7291831,69.7445881 C71.8321352,66.5854623 71.2099792,66.8262857 74.218548,56.0266217 L74.7362707,54.1075127 L78.7825069,39.388857 C79.5090962,36.8295463 80.4430711,32.9105546 74.6325782,32.4304034 C73.5949108,32.4304034 72.5579838,32.5912017 71.4166239,32.9898319 L66.1927352,51.8683025 C64.8328799,56.4274959 64.5188392,57.3062774 67.3444647,58.5074033 L64.2055392,69.7445881 L33.7732215,69.7445881 L36.8936303,58.5074033 C40.421403,57.1477226 40.6287884,55.9465967 41.665715,52.1884033 L50.7951143,19.1955798 C51.623915,15.849479 52.1431189,13.6977731 49.4456282,12.5834034 L52.5586303,1.35145378 L80.1312523,1.35145378 L74.529626,21.6673866 C78.0566583,20.2314202 82.9331764,18.4768487 92.0610941,18.3968235" id="Fill-3" fill="#FFFFFF"></path>
                                    <path d="M109.408804,38.2453193 L105.673646,51.8810168 C104.636719,55.7102606 104.013082,58.8215209 104.325641,61.2140504 C105.258134,68.7087479 113.350607,71.339857 132.844829,71.259832 C142.718593,71.1805545 152.989353,68.7087479 160.151553,64.8017226 L163.688214,52.2011176 L139.191561,52.2011176 L138.673838,54.0357143 C137.116967,59.698059 134.21061,59.6187815 132.531529,59.5402521 C128.540102,59.4594791 128.646016,57.1454791 129.59036,53.7963865 L130.850226,49.1683865 L164.519977,49.1683865 L167.848512,37.2842689 C172.010292,22.0630252 162.648325,18.8732353 143.340749,18.8732353 C117.188717,18.8732353 112.520325,27.1659412 109.408804,38.2453193 M143.652568,37.6873865 L134.105436,37.6873865 C135.871914,31.3212689 137.63469,30.5150336 140.748433,30.5950588 C145.105006,30.6758319 144.792447,33.5769328 143.652568,37.6873865" id="Fill-5" fill="#FFFFFF"></path>
                                    <polygon id="Fill-7" fill="#FFBF00" points="226.436279 88.4188824 229.904058 76.1645545 162.868227 76.1645545 159.400448 88.4188824"></polygon>
                                    <path d="M211.759026,14.7376521 C205.93372,14.6561311 204.478319,19.7702655 204.789397,21.4485513 C205.518208,25.4423328 218.001325,26.8805429 224.553961,28.7181311 C237.556281,32.3918118 239.325722,39.1042066 236.828951,47.8920217 L236.724517,48.2121226 C232.770864,62.4940049 221.537985,71.0170639 196.299189,71.096341 C182.905059,71.1763664 172.809095,68.7060554 166.147582,63.9277278 L171.144088,45.5750303 L198.159732,45.5750303 C197.745702,47.3325934 197.22946,49.0108791 196.81543,50.6876689 C196.299189,52.4467278 195.264484,56.279711 201.054239,56.361232 C203.12587,56.4405094 206.558098,55.4824504 207.911287,51.088543 C209.782939,44.8562992 205.726334,43.7374422 194.541598,41.5805008 C183.738303,39.4243074 172.28841,36.8679881 176.659797,20.9676521 C180.614932,6.69025713 192.371459,0.000299159664 214.463923,0.000299159664 C227.467725,0.000299159664 236.932644,1.8319042 245.357673,7.16966049 L240.886297,23.2846437 L214.983127,23.2846437 L215.295686,22.006484 C216.752569,16.7345429 215.816372,14.8161815 211.759026,14.7376521" id="Fill-9" fill="#FFFFFF"></path>
                                    <path d="M280.014134,34.1289571 C280.679248,31.7611084 280.789607,30.2406294 280.125233,29.3947555 C279.683058,28.5488815 278.686127,28.1270664 276.915204,28.1270664 C273.261519,28.1270664 271.823154,29.0574529 270.272948,34.8035623 L265.560857,51.7935873 C263.916587,57.879243 265.123126,58.6398562 268.409443,58.7251168 C271.490596,58.7251168 273.484458,57.7947303 275.585716,50.1885959 L276.361189,47.398184 L300.816365,47.398184 L296.285736,63.8931 C289.202786,68.2989738 279.017203,71.0946209 263.698092,71.1776377 C237.74752,71.2621504 236.75207,62.1983606 239.626579,51.6245623 L244.600865,33.8746714 C247.696832,22.7047975 254.329459,15.759058 278.464669,15.6723017 C293.852662,15.5877891 302.364349,18.5532093 307.778587,22.2807386 L303.800492,36.8326127 L279.350501,36.8326127 L279.792676,35.1423606 L280.014134,34.1289571 L280.014134,34.1289571 Z" id="Fill-11" fill="#FFFFFF"></path>
                                    <path d="M364.778003,49.7661824 L368.646481,35.9038713 C372.846034,20.7559218 368.093948,15.5026782 341.564178,15.6724513 C315.399554,15.8422244 310.536368,22.3654009 306.776027,35.9038713 L302.908291,49.7661824 C298.154722,66.7719135 303.128268,71.2623 328.755911,71.1777873 C352.176383,71.0947705 360.137017,66.3486025 364.778003,49.7661824 M328.426316,51.4564344 L332.611057,36.0714008 C333.936101,31.5929807 334.930069,28.0419555 339.795477,28.1264681 C343.001062,28.1264681 344.327588,29.5639302 342.44853,36.0714008 L338.247494,51.4564344 C336.146977,58.8942914 333.825002,58.8097791 331.179357,58.7252664 C326.553182,58.6400058 326.993876,56.3574176 328.426316,51.4564344" id="Fill-13" fill="#FFFFFF"></path>
                                    <path d="M416.177352,15.5381286 L419.161479,15.7939101 L414.187933,34.0037588 C404.794119,34.0037588 400.482724,35.9550278 398.162971,44.1834143 L396.724604,49.3588766 C395.840996,52.6675824 393.187945,55.8910278 398.05113,58.181843 L394.735927,70.1085906 L361.792027,70.1085906 L365.109452,58.0120697 C366.655954,57.4174898 368.646111,56.8244058 370.303713,50.9698512 L374.50623,35.8690193 C375.721656,31.377137 375.943113,30.4452546 373.288582,28.8365235 L376.605265,16.7242966 L404.572658,16.7242966 L403.355752,20.9603975 C407.998222,16.5545235 411.314163,15.5381286 416.177352,15.5381286" id="Fill-15" fill="#FFFFFF"></path>
                                    <path d="M417.28975,36.1199394 L413.310173,50.6030066 C412.203624,54.6640992 411.540734,57.9623344 411.874032,60.5044438 C412.86726,68.4680738 421.490787,71.2622254 442.224875,71.1777127 C452.740053,71.0946959 463.685555,68.4680738 471.313633,64.3164857 L475.070269,50.941057 L448.980453,50.941057 L448.427921,52.8878385 C446.770319,58.8942168 443.674351,58.8097041 441.892319,58.7251914 C437.659436,58.6399311 437.770535,56.1860738 438.773392,52.6335529 L440.110286,47.7258385 L475.953881,47.7258385 L479.49054,35.1065361 C483.91155,19.0618555 473.965204,15.6723765 453.402947,15.6723765 C425.581462,15.6723765 420.607175,24.4841244 417.28975,36.1199394 M453.735503,35.5253598 L443.561772,35.5253598 C445.443794,28.8832672 447.322852,28.0418807 450.639535,28.1263933 C455.283485,28.210158 454.950929,31.2384017 453.735503,35.5253598" id="Fill-17" fill="#FFFFFF"></path>
                                </g>
                            </g>
                        </g>
                    </g>
                </g>
            </g>
            <g id="the-score-logo" transform="translate(159.000000, 110.000000)">
                <g id="C9C34A7C-F694-4C00-B80C-F612B960894A">
                    <g id="Nav-Bar">
                        <g id="Nav_Contact_Desktop-(≥-768---1440px)">
                            <g id="Nav_Contact">
                                <g id="theScore-logo">
                                    <polygon id="Fill-7" fill="#FFBF00" points="67.4362787 88.4188824 70.9040582 76.1645545 3.8682273 76.1645545 0.400448223 88.4188824"></polygon>
                                    <path d="M52.7590256,14.7376521 C46.9337196,14.6561311 45.4783189,19.7702655 45.7893969,21.4485513 C46.5182082,25.4423328 59.0013245,26.8805429 65.5539607,28.7181311 C78.5562809,32.3918118 80.3257224,39.1042066 77.8289508,47.8920217 L77.7245175,48.2121226 C73.7708643,62.4940049 62.5379852,71.0170639 37.2991891,71.096341 C23.9050586,71.1763664 13.8090955,68.7060554 7.14758199,63.9277278 L12.1440877,45.5750303 L39.1597316,45.5750303 C38.7457018,47.3325934 38.2294604,49.0108791 37.8154302,50.6876689 C37.2991891,52.4467278 36.2644841,56.279711 42.0542387,56.361232 C44.1258699,56.4405094 47.5580976,55.4824504 48.9112869,51.088543 C50.7829394,44.8562992 46.7263341,43.7374422 35.5415983,41.5805008 C24.7383033,39.4243074 13.2884104,36.8679881 17.6597969,20.9676521 C21.6149316,6.69025713 33.3714586,0.000299159664 55.4639231,0.000299159664 C68.4677245,0.000299159664 77.9326437,1.8319042 86.3576731,7.16966049 L81.8862969,23.2846437 L55.983127,23.2846437 L56.2956862,22.006484 C57.7525685,16.7345429 56.8163717,14.8161815 52.7590256,14.7376521" id="Fill-9" fill="#FFFFFF"></path>
                                </g>
                            </g>
                        </g>
                    </g>
                </g>
            </g>
        </g>
    </g>
</svg>